# xmcd
#
# Track frame offsets: 
#        150
#        10168
#        21386
#        32163
#        40652
#        50407
#        64138
#        76312
#        86067
#        101334
#        110845
#        124499
#        134460
#        143653
#        161771
#
# Disc length: 2244 seconds
#
# Revision: 0
# Processed by: cddbd v1.5.2PL0 Copyright (c) Steve Scherf et al.
# Submitted via: ExactAudioCopy v1.3
#
DISCID=cd08c20f
DTITLE=Roy Clark - Let It Snow-Roy Clark
DYEAR=1900
DGENRE=Christmas
TTITLE0=Jingle Bells
TTITLE1=Let It Snow
TTITLE2=O Christmas Tree
TTITLE3=Here Comes Santa Claus
TTITLE4=Away In a Manger
TTITLE5=Home for the Holidays
TTITLE6=Rudolph the Red-Nosed Reindeer
TTITLE7=Christmas Time's a Comin
TTITLE8=I'll Be Home for Christmas
TTITLE9=Santa Claus is Coming
TTITLE10=White Christmas
TTITLE11=Silent Night
TTITLE12=Winter Wonderland
TTITLE13=Little Drummer Boy
TTITLE14=We Wish You a Merry Christmas
EXTD=
EXTT0=
EXTT1=
EXTT2=
EXTT3=
EXTT4=
EXTT5=
EXTT6=
EXTT7=
EXTT8=
EXTT9=
EXTT10=
EXTT11=
EXTT12=
EXTT13=
EXTT14=
PLAYORDER=
